HIERARCHY
ROOT Hips
{
	OFFSET 0.00000 0.00000 0.00000
	CHANNELS 6 Xposition Yposition Zposition Zrotation Yrotation Xrotation 
	JOINT LHipJoint
	{
		OFFSET 0 0 0
		CHANNELS 3 Zrotation Yrotation Xrotation
		JOINT LeftUpLeg
		{
			OFFSET 1.37590 -1.78394 0.89329
			CHANNELS 3 Zrotation Yrotation Xrotation
			JOINT LeftLeg
			{
				OFFSET 2.47928 -6.81178 0.00000
				CHANNELS 3 Zrotation Yrotation Xrotation
				JOINT LeftFoot
				{
					OFFSET 2.63345 -7.23535 0.00000
					CHANNELS 3 Zrotation Yrotation Xrotation
					JOINT LeftToeBase
					{
						OFFSET 0.23938 -0.65768 2.27012
						CHANNELS 3 Zrotation Yrotation Xrotation
						End Site
						{
							OFFSET 0.00000 -0.00000 1.18363
						}
					}
				}
			}
		}
	}
	JOINT RHipJoint
	{
		OFFSET 0 0 0
		CHANNELS 3 Zrotation Yrotation Xrotation
		JOINT RightUpLeg
		{
			OFFSET -1.33617 -1.78394 0.89329
			CHANNELS 3 Zrotation Yrotation Xrotation
			JOINT RightLeg
			{
				OFFSET -2.56922 -7.05888 0.00000
				CHANNELS 3 Zrotation Yrotation Xrotation
				JOINT RightFoot
				{
					OFFSET -2.56568 -7.04915 0.00000
					CHANNELS 3 Zrotation Yrotation Xrotation
					JOINT RightToeBase
					{
						OFFSET -0.27533 -0.75646 2.18105
						CHANNELS 3 Zrotation Yrotation Xrotation
						End Site
						{
							OFFSET -0.00000 -0.00000 1.15233
						}
					}
				}
			}
		}
	}
	JOINT LowerBack
	{
		OFFSET 0 0 0
		CHANNELS 3 Zrotation Yrotation Xrotation
		JOINT Spine
		{
			OFFSET 0.06190 2.15152 -0.00935
			CHANNELS 3 Zrotation Yrotation Xrotation
			JOINT Spine1
			{
				OFFSET 0.06334 2.15332 0.00872
				CHANNELS 3 Zrotation Yrotation Xrotation
				JOINT Neck
				{
					OFFSET 0 0 0
					CHANNELS 3 Zrotation Yrotation Xrotation
					JOINT Neck1
					{
						OFFSET -0.04202 1.66908 0.23524
						CHANNELS 3 Zrotation Yrotation Xrotation
						JOINT Head
						{
							OFFSET 0.07510 1.69357 -0.24440
							CHANNELS 3 Zrotation Yrotation Xrotation
							End Site
							{
								OFFSET 0.02556 1.71719 -0.11000
							}
						}
					}
				}
				JOINT LeftShoulder
				{
					OFFSET 0 0 0
					CHANNELS 3 Zrotation Yrotation Xrotation
					JOINT LeftArm
					{
						OFFSET 3.67168 1.26306 -0.41342
						CHANNELS 3 Zrotation Yrotation Xrotation
						JOINT LeftForeArm
						{
							OFFSET 4.68510 -0.00000 -0.00000
							CHANNELS 3 Zrotation Yrotation Xrotation
							JOINT LeftHand
							{
								OFFSET 3.39626 -0.00000 -0.00000
								CHANNELS 3 Zrotation Yrotation Xrotation
								JOINT LeftFingerBase
								{
									OFFSET 0 0 0
									CHANNELS 3 Zrotation Yrotation Xrotation
									JOINT LeftHandIndex1
									{
										OFFSET 0.48608 -0.00000 -0.00000
										CHANNELS 3 Zrotation Yrotation Xrotation
										End Site
										{
											OFFSET 0.39189 -0.00000 -0.00000
										}
									}
								}
								JOINT LThumb
								{
									OFFSET 0 0 0
									CHANNELS 3 Zrotation Yrotation Xrotation
									End Site
									{
										OFFSET 0.39787 -0.00000 0.39787
									}
								}
							}
						}
					}
				}
				JOINT RightShoulder
				{
					OFFSET 0 0 0
					CHANNELS 3 Zrotation Yrotation Xrotation
					JOINT RightArm
					{
						OFFSET -3.04136 1.42992 -0.76390
						CHANNELS 3 Zrotation Yrotation Xrotation
						JOINT RightForeArm
						{
							OFFSET -5.55576 -0.00000 -0.00000
							CHANNELS 3 Zrotation Yrotation Xrotation
							JOINT RightHand
							{
								OFFSET -3.32774 -0.00000 -0.00000
								CHANNELS 3 Zrotation Yrotation Xrotation
								JOINT RightFingerBase
								{
									OFFSET 0 0 0
									CHANNELS 3 Zrotation Yrotation Xrotation
									JOINT RightHandIndex1
									{
										OFFSET -0.50763 -0.00000 -0.00000
										CHANNELS 3 Zrotation Yrotation Xrotation
										End Site
										{
											OFFSET -0.40926 -0.00000 -0.00000
										}
									}
								}
								JOINT RThumb
								{
									OFFSET 0 0 0
									CHANNELS 3 Zrotation Yrotation Xrotation
									End Site
									{
										OFFSET -0.41551 -0.00000 0.41551
									}
								}
							}
						}
					}
				}
			}
		}
	}
}
MOTION
Frames: 13
Frame Time: .0083333
28.6101 17.4177 5.8439 0 0 0 0 0 0 -21 0 0 0 0 0 0 0 0 0 0 0 0 0 0 21 0 0 0 0 0 0 0 0 0 0 0 0 0 0 0 0 0 0 0 0 0 0 -16 0 0 21 0 0 11 0 0 0 -8 0 0 0 0 0 0 0 0 0 0 0 0 0 0 0 0 0 0 0 0 8 0 0 0 0 0 0 0 0 0 0 0 0 0 0 0 0 0
28.6101 17.4177 5.8439 41.3535 -84.0969 -40.9255 0.0000 0.0000 0.0000 -28.7524 -5.4884 9.7443 0.7712 5.6075 15.6499 1.0548 -7.8105 -18.3696 0.0032 0.3681 1.0114 0.0000 0.0000 0.0000 0.8077 13.6652 -77.3713 -14.9421 -19.3753 75.0622 -0.6920 -22.4990 20.5486 -1.1627 -6.8452 19.2577 -6.3893 -5.4214 5.2341 2.2667 -7.6004 -1.6569 6.4774 -3.6165 -3.5140 -3.5513 -1.0405 -22.8259 4.5368 -1.2871 17.1610 1.9679 -0.3222 9.2004 0.0000 -0.0000 0.0000 -81.5663 -27.6608 51.7948 52.9602 -54.1218 -28.5558 -0.0000 0.0000 -2.5354 12.1248 15.4792 3.2816 -7.1250 0.0000 -0.0000 -14.4410 45.2883 -0.1050 0.0000 -0.0000 0.0000 80.2885 -30.4076 -0.7217 -12.6382 20.7548 -2.3235 0.0000 0.0000 9.9203 -4.0994 -12.6338 0.8981 7.1250 -0.0000 -0.0000 20.5487 -41.7007 1.7551
28.4724 17.3946 5.8334 40.6908 -83.9729 -39.8819 0.0000 0.0000 0.0000 -28.5885 -5.2632 9.8709 0.7525 5.5404 15.4566 1.0677 -8.1298 -18.4999 0.0010 0.2036 0.5594 0.0000 0.0000 0.0000 1.2131 13.3542 -75.7474 -14.5244 -19.2654 73.7997 -0.7255 -22.8121 20.9247 -1.3126 -7.2570 20.4789 -6.3641 -5.4642 4.7362 2.2528 -7.6245 -1.6196 6.3873 -3.6457 -3.1963 -3.5635 -1.0713 -22.7976 4.6197 -1.3378 16.9773 1.9894 -0.3375 9.1347 -0.0000 0.0000 0.0000 -81.9142 -26.9452 51.9496 52.5787 -53.9840 -28.2470 -0.0000 0.0000 -2.2793 12.3605 15.6273 3.3784 -7.1250 0.0000 -0.0000 -14.2746 45.4625 -0.1664 -0.0000 0.0000 0.0000 80.7233 -29.7795 0.8130 -13.2322 21.6265 -2.5382 0.0000 0.0000 8.5245 -3.9498 -11.9561 0.8195 7.1250 -0.0000 -0.0000 20.4568 -41.0513 2.0912
28.3322 17.3707 5.8231 40.0008 -83.8541 -38.8066 0.0000 0.0000 0.0000 -28.4123 -5.0289 9.9874 0.7334 5.4713 15.2578 1.0725 -8.4280 -18.5638 0.0000 0.0190 0.0521 0.0000 0.0000 0.0000 1.6451 13.0442 -74.0165 -14.0918 -19.1416 72.4845 -0.7575 -23.0757 21.2616 -1.4183 -7.5317 21.3003 -6.3771 -5.4674 4.6260 2.3221 -7.6280 -1.8678 6.4724 -3.6320 -3.3827 -3.6082 -1.0917 -22.4939 4.5960 -1.3548 16.9399 1.9843 -0.3551 9.0699 0.0000 -0.0000 0.0000 -82.4770 -25.7644 52.1753 52.0435 -53.7871 -27.8146 -0.0000 0.0000 -2.1912 12.4520 15.6421 3.4073 -7.1250 0.0000 -0.0000 -14.1965 45.4881 -0.1746 0.0000 -0.0000 0.0000 80.9855 -29.5559 2.5724 -13.8884 22.5750 -2.7851 0.0000 0.0000 6.9051 -4.4066 -12.1817 0.9316 7.1250 -0.0000 -0.0000 20.1428 -41.3053 1.9234
28.1840 17.3469 5.8116 38.7474 -83.7419 -37.2496 0.0000 0.0000 0.0000 -28.2121 -4.8444 10.1637 0.7321 5.4666 15.2443 1.0808 -8.6138 -18.6496 0.0007 -0.1757 -0.4828 0.0000 0.0000 0.0000 2.2204 12.6504 -71.8913 -13.5824 -18.9825 70.9251 -0.7716 -23.2837 21.4576 -1.6300 -8.0487 22.8622 -6.2764 -5.4651 4.1351 2.3081 -7.5875 -1.8006 6.3376 -3.6315 -3.0570 -3.6809 -1.2192 -22.6509 4.6670 -1.5157 16.9266 1.9986 -0.4250 9.1012 0.0000 0.0000 0.0000 -82.8971 -24.9617 52.4358 51.0615 -53.4148 -27.0242 -0.0000 0.0000 -2.2626 12.2691 15.6637 3.3603 -7.1250 0.0000 -0.0000 -14.3684 45.4873 -0.1765 0.0000 0.0000 0.0000 81.4898 -28.5938 3.8872 -14.5080 23.4562 -3.0274 0.0000 0.0000 5.5256 -4.6640 -11.9855 0.9706 7.1250 -0.0000 -0.0000 19.8633 -41.1446 1.9768
28.0366 17.3233 5.8003 37.6819 -83.6426 -35.8667 0.0000 0.0000 0.0000 -27.9790 -4.5989 10.3091 0.7260 5.4443 15.1804 1.0833 -8.8648 -18.6933 0.0033 -0.3707 -1.0185 0.0000 0.0000 0.0000 2.7832 12.2775 -69.8367 -13.0849 -18.8126 69.3890 -0.8020 -23.4732 21.7403 -1.8070 -8.4520 24.0955 -6.2009 -5.4604 3.8016 2.3304 -7.5583 -1.8579 6.2834 -3.6227 -2.9403 -3.7458 -1.3010 -22.6100 4.7035 -1.6151 16.9006 2.0073 -0.4722 9.0906 -0.0000 0.0000 0.0000 -83.3592 -23.9807 52.6501 50.1607 -53.0601 -26.3026 -0.0000 0.0000 -2.2435 12.2012 15.6512 3.3385 -7.1250 0.0000 -0.0000 -14.4259 45.4667 -0.1697 -0.0000 0.0000 0.0000 81.8785 -27.9045 5.3040 -15.1917 24.4125 -3.3048 0.0000 0.0000 4.1268 -4.9728 -11.9148 1.0291 7.1250 -0.0000 -0.0000 19.5802 -41.1062 1.9655
27.8853 17.2999 5.7885 36.5662 -83.5635 -34.4595 0.0000 0.0000 0.0000 -27.7175 -4.3334 10.4584 0.7248 5.4398 15.1673 1.0818 -9.1091 -18.7068 0.0077 -0.5676 -1.5598 0.0000 0.0000 0.0000 3.4075 11.8941 -67.6355 -12.5559 -18.6159 67.7405 -0.8500 -23.5482 22.0657 -1.9736 -8.8109 25.2056 -6.1088 -5.4422 3.4841 2.3593 -7.5118 -1.9217 6.2293 -3.6045 -2.8430 -3.8182 -1.3884 -22.5648 4.7335 -1.7194 16.8948 2.0145 -0.5230 9.0867 -0.0000 0.0000 0.0000 -83.8311 -22.9382 52.8597 49.0925 -52.6229 -25.4512 -0.0000 0.0000 -2.2333 12.1073 15.5819 3.2979 -7.1250 0.0000 -0.0000 -14.4889 45.3873 -0.1415 -0.0000 0.0000 0.0000 82.2583 -27.1743 6.6924 -15.9268 25.4213 -3.6145 0.0000 0.0000 2.7205 -5.3233 -11.9168 1.1023 7.1250 -0.0000 -0.0000 19.2840 -41.1401 1.9162
27.7293 17.2767 5.7760 35.3921 -83.5155 -33.0230 0.0000 0.0000 0.0000 -27.4206 -4.0533 10.6133 0.7293 5.4565 15.2154 1.0767 -9.3512 -18.6915 0.0141 -0.7654 -2.1034 0.0000 0.0000 0.0000 4.1092 11.5061 -65.2827 -11.9930 -18.3877 65.9668 -0.9253 -23.4663 22.4684 -2.1114 -9.0944 26.0910 -5.9987 -5.4123 3.1555 2.3958 -7.4487 -1.9760 6.1714 -3.5791 -2.7330 -3.8979 -1.4778 -22.5077 4.7606 -1.8238 16.8870 2.0219 -0.5748 9.0801 -0.0000 -0.0000 0.0000 -84.3000 -21.8546 53.0492 47.8604 -52.0953 -24.4755 -0.0000 0.0000 -2.2123 12.0402 15.4511 3.2523 -7.1250 0.0000 -0.0000 -14.5085 45.2507 -0.0917 -0.0000 -0.0000 0.0000 82.6292 -26.3839 8.0465 -16.7201 26.4873 -3.9617 0.0000 0.0000 1.3135 -5.6598 -11.9272 1.1733 7.1250 -0.0000 -0.0000 19.0018 -41.1809 1.8658
27.5684 17.2540 5.7620 34.1904 -83.5123 -31.5838 0.0000 0.0000 0.0000 -27.0884 -3.7789 10.7681 0.7415 5.5009 15.3429 1.0677 -9.5860 -18.6469 0.0226 -0.9711 -2.6692 0.0000 0.0000 0.0000 4.8986 11.1271 -62.7825 -11.3953 -18.1232 64.0587 -1.0113 -23.1724 22.8263 -2.1486 -9.1689 26.3252 -5.8737 -5.3688 2.8165 2.4437 -7.3668 -2.0279 6.1162 -3.5448 -2.6175 -3.9796 -1.5608 -22.4296 4.7835 -1.9186 16.8757 2.0295 -0.6230 9.0683 -0.0000 0.0000 0.0000 -84.7616 -20.7199 53.2089 46.4740 -51.4705 -23.3862 -0.0000 0.0000 -2.1701 12.0344 15.2499 3.2094 -7.1250 0.0000 -0.0000 -14.4515 45.0521 -0.0190 -0.0000 0.0000 0.0000 82.9868 -25.5528 9.3895 -17.5868 27.6249 -4.3560 0.0000 -0.0000 -0.0991 -5.9764 -11.9733 1.2442 7.1250 -0.0000 -0.0000 18.7469 -41.2538 1.8034
27.4016 17.2320 5.7462 32.9306 -83.5599 -30.1184 0.0000 0.0000 0.0000 -26.7160 -3.5183 10.9196 0.7645 5.5835 15.5806 1.0542 -9.8267 -18.5682 0.0341 -1.1926 -3.2788 0.0000 0.0000 0.0000 5.7921 10.7532 -60.1236 -10.7705 -17.8209 62.0340 -1.0219 -22.5650 22.5967 -1.9208 -8.6991 24.8586 -5.7364 -5.3121 2.4576 2.5035 -7.2666 -2.0724 6.0641 -3.5022 -2.4856 -4.0666 -1.6377 -22.3286 4.8026 -2.0034 16.8626 2.0380 -0.6678 9.0514 -0.0000 -0.0000 0.0000 -85.2082 -19.5315 53.3294 44.9538 -50.7458 -22.2030 -0.0000 0.0000 -2.1032 12.1046 15.0070 3.1785 -7.1250 0.0000 -0.0000 -14.3143 44.8214 0.0644 -0.0000 -0.0000 0.0000 83.3283 -24.6772 10.7304 -18.5332 28.8346 -4.8037 0.0000 -0.0000 -1.5049 -6.2547 -12.0391 1.3096 7.1250 -0.0000 -0.0000 18.5300 -41.3421 1.7388
27.2287 17.2111 5.7278 31.6150 -83.6602 -28.6250 0.0000 0.0000 0.0000 -26.3000 -3.2769 11.0448 0.8017 5.7148 15.9592 1.0343 -10.0914 -18.4433 0.0507 -1.4528 -3.9957 0.0000 0.0000 0.0000 6.8005 10.3713 -57.3162 -10.1383 -17.4869 59.9495 -0.8897 -21.4923 21.2786 -1.4493 -7.6100 21.5356 -5.5924 -5.2458 2.0437 2.5727 -7.1511 -2.0920 6.0113 -3.4548 -2.2983 -4.1458 -1.7053 -22.2175 4.8096 -2.0755 16.8397 2.0429 -0.7075 9.0287 0.0000 -0.0000 0.0000 -85.6212 -18.3236 53.3985 43.3070 -49.9116 -20.9354 -0.0000 0.0000 -2.0107 12.0372 14.8973 3.1378 -7.1250 0.0000 -0.0000 -14.3414 44.7057 0.1064 0.0000 -0.0000 0.0000 83.6547 -23.7273 12.0891 -19.5629 30.1122 -5.3103 0.0000 -0.0000 -2.8789 -6.4965 -12.1320 1.3710 7.1250 -0.0000 -0.0000 18.3518 -41.4531 1.6684
27.0495 17.1916 5.7064 30.1172 -83.8095 -26.9733 0.0000 0.0000 0.0000 -25.8214 -3.0645 11.1143 0.8584 5.9084 16.5188 1.0029 -10.4050 -18.2354 0.0752 -1.7693 -4.8685 0.0000 0.0000 0.0000 7.9340 9.9566 -54.3929 -9.5250 -17.1340 57.8887 -0.5956 -19.8436 18.5095 -0.8820 -5.9868 16.7460 -5.4369 -5.1728 1.5970 2.6554 -7.0264 -2.1090 5.9635 -3.4035 -2.0906 -4.2169 -1.7612 -22.0899 4.8009 -2.1325 16.8351 2.0433 -0.7416 9.0084 -0.0000 0.0000 0.0000 -86.0003 -17.0604 53.4134 41.5569 -48.9657 -19.6056 -0.0000 0.0000 -1.8974 11.8374 14.9474 3.0944 -7.1250 0.0000 -0.0000 -14.5355 44.7319 0.0983 -0.0000 0.0000 0.0000 83.9527 -22.7338 13.5153 -20.6853 31.4592 -5.8848 0.0000 -0.0000 -4.2086 -6.7382 -12.2761 1.4390 7.1250 -0.0000 -0.0000 18.1887 -41.6131 1.5778
26.8645 17.1736 5.6820 28.5616 -84.0122 -25.2725 0.0000 0.0000 0.0000 -25.2840 -2.8668 11.0674 0.9418 6.1810 17.3105 0.9558 -10.7980 -17.9169 0.1106 -2.1446 -5.9055 0.0000 0.0000 0.0000 9.1521 9.5237 -51.4147 -8.9396 -16.7687 55.8809 -0.2351 -17.4918 14.4196 -0.4172 -4.1457 11.4869 -5.2789 -5.0904 1.1038 2.7456 -6.8891 -2.1288 5.9191 -3.3463 -1.8609 -4.2783 -1.8027 -21.9441 4.7790 -2.1721 16.8585 2.0403 -0.7688 8.9935 -0.0000 0.0000 0.0000 -86.3327 -15.7422 53.3696 39.7180 -47.9019 -18.2297 -0.0000 0.0000 -1.7460 11.4118 15.1810 3.0257 -7.1250 0.0000 -0.0000 -14.9886 44.9115 0.0335 -0.0000 0.0000 0.0000 84.2177 -21.6965 15.0458 -21.9114 32.8768 -6.5377 0.0000 -0.0000 -5.4573 -6.9900 -12.5094 1.5212 7.1250 -0.0000 -0.0000 18.0434 -41.8598 1.4501
